IKResults
version=1
nRows=5
nColumns=67
inDegrees=yes

Units are S.I. units (second, meters, Newtons, ...)
Angles are in degrees.

endheader
time	pelvis_tilt	pelvis_list	pelvis_rotation	pelvis_tx	pelvis_ty	pelvis_tz	hip_flexion_r	hip_adduction_r	hip_rotation_r	knee_angle_r	knee_rot_r	knee_adduc_r	ankle_angle_r	ankle_rot_r	ankle_add_r	subtalar_angle_r	mtp_angle_r	mtp_rot_r	mtp_add_r	hip_flexion_l	hip_adduction_l	hip_rotation_l	knee_angle_l	knee_rot_l	knee_adduc_l	ankle_angle_l	ankle_rot_l	ankle_add_l	subtalar_angle_l	mtp_angle_l	mtp_rot_l	mtp_add_l	lumbar_extension	lumbar_bending	lumbar_rotation	neck_flexion	neck_lateral_bending	neck_rotation	arm_flex_r	arm_add_r	arm_rot_r	elbow_flex_r	elbow_rot_r	elbow_add_r	pro_sup_r	wrist_flex_r	wrist_adduc_r	wrist_rot_r	wrist_dev_r	hand_finger_flex_r	hand_finger_adduc_r	hand_finger_rot_r	arm_flex_l	arm_add_l	arm_rot_l	elbow_flex_l	elbow_rot_l	elbow_add_l	pro_sup_l	wrist_flex_l	wrist_adduc_l	wrist_rot_l	wrist_dev_l	hand_finger_flex_l	hand_finger_adduc_l	hand_finger_rot_l
      0.00000000	     19.97992999	      5.48498856	     -1.69110914	     -3.15729941	      0.72843701	      0.56914097	     10.40019971	     -5.36807957	     11.04456667	    -16.38440250	     -5.00000000	     -1.16340755	      0.01786567	     -4.99989293	      2.65114151	     -0.84802332	      0.51547548	     -0.43041230	      0.32410371	    -40.68746056	      7.98438164	      5.55359229	    -15.58645096	      2.41636087	      2.23314747	     14.07704047	     -1.87390559	     -0.65772199	     -0.41812905	      2.73540144	      0.18039473	     -1.26392985	    -33.42824446	     -2.63503448	     -8.21500155	      0.00000000	      0.00000000	      0.00000000	      0.00000000	      0.00000000	      0.00000000	      0.00000000	      0.00000000	      0.00000000	     -0.00042092	      0.00000000	      0.00000000	      0.00000000	      0.00000000	      0.00000000	      0.00000000	      0.00000000	      0.00000000	      0.00000000	      0.00000000	      0.00000000	      0.00000000	      0.00000000	      0.00000000	      0.00000000	      0.00000000	      0.00000000	      0.00000000	      0.00000000	      0.00000000	      0.00000000
      0.00500000	     19.68447978	      5.17175152	     -1.56241451	     -3.14946664	      0.72826727	      0.57022544	     10.95321494	     -4.85349710	     10.68264272	    -17.92154519	     -5.00000000	     -1.30873022	     -0.90792411	     -5.00000000	      5.00000000	      0.73078549	      1.24206551	     -0.72392222	      0.71214803	    -40.19762002	      7.64717698	      4.64417795	    -16.75090476	      4.25793551	      2.61191768	     13.64534143	     -2.97694031	     -1.17658404	      1.68385340	      5.42728638	      0.40172877	     -2.00000000	    -33.01643695	     -2.22128907	     -8.46213639	      0.00000000	      0.00000000	      0.00000000	      0.00000000	      0.00000000	      0.00000000	      0.00000000	      0.00000000	      0.00000000	     -0.00042092	      0.00000000	      0.00000000	      0.00000000	      0.00000000	      0.00000000	      0.00000000	      0.00000000	      0.00000000	      0.00000000	      0.00000000	      0.00000000	      0.00000000	      0.00000000	      0.00000000	      0.00000000	      0.00000000	      0.00000000	      0.00000000	      0.00000000	      0.00000000	      0.00000000
      0.01000000	     19.44383548	      4.72023226	     -1.41094979	     -3.14157479	      0.72816314	      0.57108124	     11.39127445	     -4.27413898	     10.63511774	    -19.41984670	     -5.00000000	     -1.07784107	     -0.73137889	     -5.00000000	      5.00000000	      0.41124495	      1.82697777	     -0.97313223	      1.02659731	    -39.76500020	      7.21777069	      4.67064995	    -18.00352788	      5.00000000	      2.73930182	     12.44402632	     -2.55441554	     -1.25649328	      2.40712756	      7.26364716	      0.58692205	     -2.00000000	    -32.59291058	     -1.60670307	     -8.41595493	      0.00000000	      0.00000000	      0.00000000	      0.00000000	      0.00000000	      0.00000000	      0.00000000	      0.00000000	      0.00000000	     -0.00042092	      0.00000000	      0.00000000	      0.00000000	      0.00000000	      0.00000000	      0.00000000	      0.00000000	      0.00000000	      0.00000000	      0.00000000	      0.00000000	      0.00000000	      0.00000000	      0.00000000	      0.00000000	      0.00000000	      0.00000000	      0.00000000	      0.00000000	      0.00000000	      0.00000000
      0.01500000	     19.60629826	      4.39023280	     -1.16950964	     -3.13437028	      0.72843306	      0.57188330	     11.46498313	     -3.92636503	     10.72362967	    -20.98812308	     -5.00000000	     -0.67136496	     -0.89246246	     -5.00000000	      5.00000000	      0.54713758	      1.86596585	     -0.98496318	      1.04646289	    -39.62569861	      6.76023566	      4.51456376	    -19.45479159	      5.00000000	      2.84772211	     11.59195036	     -2.56080152	     -1.20477712	      2.58288812	      7.38531880	      0.60087961	     -2.00000000	    -32.80809382	     -1.12706223	     -8.47061397	      0.00000000	      0.00000000	      0.00000000	      0.00000000	      0.00000000	      0.00000000	      0.00000000	      0.00000000	      0.00000000	     -0.00042092	      0.00000000	      0.00000000	      0.00000000	      0.00000000	      0.00000000	      0.00000000	      0.00000000	      0.00000000	      0.00000000	      0.00000000	      0.00000000	      0.00000000	      0.00000000	      0.00000000	      0.00000000	      0.00000000	      0.00000000	      0.00000000	      0.00000000	      0.00000000	      0.00000000
      0.02000000	     18.91804161	      4.29360275	     -1.21997775	     -3.12699799	      0.72801853	      0.57265257	     12.61801664	     -3.92602011	     11.84253012	    -22.70305821	     -5.00000000	      0.36618228	     -0.58310539	     -5.00000000	      5.00000000	     -0.24435141	      4.04148428	     -2.00000000	      2.00000000	    -38.47262403	      6.67944029	      4.27803888	    -21.01219668	      4.67121958	      2.86065337	      9.56612420	     -0.22881062	     -1.88873656	      4.92964741	     16.52731826	      1.54308928	     -2.00000000	    -31.91766814	     -0.92070504	     -8.57353083	      0.00000000	      0.00000000	      0.00000000	      0.00000000	      0.00000000	      0.00000000	      0.00000000	      0.00000000	      0.00000000	     -0.00042092	      0.00000000	      0.00000000	      0.00000000	      0.00000000	      0.00000000	      0.00000000	      0.00000000	      0.00000000	      0.00000000	      0.00000000	      0.00000000	      0.00000000	      0.00000000	      0.00000000	      0.00000000	      0.00000000	      0.00000000	      0.00000000	      0.00000000	      0.00000000	      0.00000000
